<?xml version="1.0" encoding="utf-8"?>
<!-- Generator: Adobe Illustrator 27.0.1, SVG Export Plug-In . SVG Version: 6.00 Build 0)  -->
<svg version="1.1" id="Layer_1" xmlns="http://www.w3.org/2000/svg" xmlns:xlink="http://www.w3.org/1999/xlink" x="0px" y="0px"
	 viewBox="0 0 1000 1000" style="enable-background:new 0 0 1000 1000;" xml:space="preserve">
<style type="text/css">
	.st0{fill:#FFFFFF;}
</style>
<g>
	<path class="st0" d="M958.6,434.1L587,47.7c-23.1-24-53.9-37.2-87-37.2c-33.2,0-64,13.2-87.1,37.2L41.4,434.1
		C3.1,474,8,508.5,14.4,522.9c4.5,10.2,19.8,38.3,63.7,38.3h54.4v297.3c0,67.5,48.5,131,117.5,131h158.1V674.9
		c0-33.7-5.1-52.5,29.4-52.5h125c34.4,0,29.3,18.7,29.3,52.5v314.6H750c68.9,0,117.5-63.6,117.5-131V561.2H922
		c43.9,0,59.2-28.1,63.6-38.3C992,508.5,997,474,958.6,434.1z M922,500H806.2v358.5c0,33.7-21.7,69.8-56.2,69.8h-96.9V674.9
		c0-67.5-21.6-113.7-90.6-113.7h-125c-68.9,0-90.6,46.2-90.6,113.7v253.4H250c-34.5,0-56.2-36.1-56.2-69.8V500H78.1
		c-1.1,0-2.1-4.2-3-4.3c2.2-3.7,5.8-13.1,11.9-19.4L458.6,90.2c11-11.5,26.7-18.6,42-18.5c15.2-0.1,29.9,6.9,41,18.5l371.6,386.2
		c6.1,6.3,9.8,15.7,11.9,19.4C924,495.8,923,500,922,500z"/>
</g>
</svg>
