<?xml version="1.0" encoding="utf-8"?>
<!-- Generator: Adobe Illustrator 27.0.0, SVG Export Plug-In . SVG Version: 6.00 Build 0)  -->
<svg version="1.1" id="Layer_1" xmlns="http://www.w3.org/2000/svg" xmlns:xlink="http://www.w3.org/1999/xlink" x="0px" y="0px"
	 viewBox="0 0 100 100" style="enable-background:new 0 0 100 100;" xml:space="preserve">
<style type="text/css">
	.st0{fill:#FFFFFF;}
</style>
<path class="st0" d="M21,8c-0.9,0-1.6,0.5-1.9,1.4l-19,59.2c-0.2,0.7-0.1,1.6,0.5,2.1l20.2,18.8c0.4,0.3,0.9,0.6,1.4,0.6H44
	c0.9,0,1.7-0.6,1.9-1.5l2.7-9.8c0.2,0.1,0.4,0.1,0.6,0.1h4.9l9.2,10.5c0.4,0.4,0.9,0.7,1.5,0.7h22.6c1,0,1.8-0.7,2-1.6l10.6-56
	c0.1-0.4,0-0.9-0.2-1.3l-11.4-22C88,8.4,87.4,8,86.6,8H63.8c-0.9,0-1.7,0.6-1.9,1.5l-2.2,8.8l-4.7,0.1c-0.9,0-1.6,0.7-1.9,1.5
	l-0.1,0.4L44.6,8.8C44.2,8.3,43.6,8,43,8H21z M22.4,12h17.8l-2.8,9.2H19.5L22.4,12z M65.4,12h18.6l-4.6,19.2H70
	c0.1-0.3,0.1-0.6,0.2-0.9l1-6.9c0.2-2-0.5-3.2-1.1-3.9c-0.6-0.6-1.6-1.4-3.3-1.4h-3.1L65.4,12z M61.2,22.2h5.6
	c0.3,0,0.4,0.1,0.4,0.1c0,0.1,0.1,0.3,0.1,0.7l-1.1,6.8c-0.1,0.8-0.8,1.2-1.6,1.2c-0.3,0-0.6,0.1-0.9,0.2h-9.5l1.9-6.9
	c0.1-0.2,0.1-0.4,0.1-0.6l0.4-1.3L61.2,22.2z M18.2,25.2h23.2l-2,7.5c-0.2,0.6,0,1.3,0.4,1.8c0.4,0.5,0.9,0.8,1.6,0.8h37.1
	l-6.9,32.2H54l5.9-22.1c0.2-0.6,0-1.3-0.4-1.8s-0.9-0.8-1.6-0.8h-7c-0.9,0-1.7,0.6-1.9,1.5L46.4,54h-8.2l2.5-8.9
	c0.2-0.6,0-1.2-0.4-1.8s-0.9-0.8-1.6-0.8h-7c-0.9,0-1.7,0.6-1.9,1.4l-2.2,7.8c-0.1,0.2-0.3,0.4-0.4,0.6l-0.1,0.4h-6.9l0.8-2.4
	c0.4-1.3,0.1-2.7-0.6-3.7c-0.7-1-1.9-1.5-3.1-1.5h-5.6L18.2,25.2z M10.5,49.2h6.8l-0.8,2.2c-0.4,0.9-0.5,1.8-0.2,2.6
	c-0.7,0.6-1.2,1.3-1.4,2.2l-0.8,2.7c-0.6,1.5-0.5,3,0.3,4.2c0.6,0.9,1.9,2.1,4.8,2.1h4.4L23.1,67L4.8,67.2L10.5,49.2z M20.2,56.8H26
	l-1.2,4.4h-5.6c-1.2,0-1.4-0.2-1.4-0.2c0-0.1,0-0.3,0.1-0.6c0-0.1,0.1-0.2,0.1-0.2l0.8-2.8C18.8,57.1,19.4,56.8,20.2,56.8z"/>
</svg>
