<?xml version="1.0" encoding="UTF-8"?>
<svg id="Layer_1" data-name="Layer 1" xmlns="http://www.w3.org/2000/svg" viewBox="0 0 1024 1024">
  <defs>
    <style>
      .cls-1 {
        fill: #fff;
      }

      .cls-1, .cls-2 {
        stroke: #fff;
        stroke-miterlimit: 10;
        stroke-width: 10px;
      }

      .cls-2 {
        fill: none;
      }
    </style>
  </defs>
  <path class="cls-1" d="M831.77,224.8c.1,2.2,.1,4.3,.1,6.5,0,40.38-18.62,84.55-53.94,113.1-23.01,18.61-53.11,30.6-89.76,30.6-13.7,0-27.27-1.95-40.31-5.75-13.04-3.8-25.54-9.45-37.09-16.85,4,.5,8,.7,12,.7,22.7,0,44.8-7.6,62.7-21.7-21.6-.4-40.6-14.5-47.2-35.1,7.6,1.5,15.4,1.2,22.8-.9-23.6-4.8-40.5-25.5-40.5-49.5v-.6c7,3.9,14.9,6.1,22.9,6.3-20.87-13.91-28.13-40.9-17.8-63.19,.66-1.42,1.39-2.83,2.2-4.21,2.66,3.28,5.46,6.42,8.38,9.43h.01c14.87,15.31,32.91,27.03,52.71,34.43,13.66,5.11,28.15,8.17,43,8.94-4.1-17.5,1.5-35.9,14.6-48.2,20.3-19.1,52.3-18.1,71.4,2.2,11.3-2.2,22.1-6.4,32.1-12.3-3.8,11.7-11.7,21.6-22.2,27.9,10-1.2,19.8-3.9,29-8-6.6,10.2-15.2,19-25.1,26.2Z"/>
  <path class="cls-1" d="M523.75,716.02v64.78h21.6v-64.78h-21.6Zm-59.38,0v64.78h21.6v-64.78h-21.6Zm59.38,0v64.78h21.6v-64.78h-21.6Zm-59.38,0v64.78h21.6v-64.78h-21.6Zm0,0v64.78h21.6v-64.78h-21.6Zm59.38,0v64.78h21.6v-64.78h-21.6Zm0,0v64.78h21.6v-64.78h-21.6Zm-59.38,64.78h21.6v-64.78h-21.6v64.78Zm-80.2-128.78l-16.19,43.18v171.97h59.38v31.62h32.39l32.39-32.39h47.81l64-64.01v-150.37h-219.78Zm198.96,139.58l-38.56,37.79h-58.6l-32.39,32.38v-32.38h-47.81v-155.78h177.36v117.99Zm-59.38-10.8h21.6v-64.78h-21.6v64.78Zm-59.38,0h21.6v-64.78h-21.6v64.78Zm0-64.78v64.78h21.6v-64.78h-21.6Zm59.38,0v64.78h21.6v-64.78h-21.6Zm0,0v64.78h21.6v-64.78h-21.6Zm-59.38,0v64.78h21.6v-64.78h-21.6Z"/>
  <g id="g5">
    <path id="path7" class="cls-1" d="M371.7,211.92c-2.31-8.58-8.02-15.78-15.6-20.05-2.34-1.33-4.87-2.37-7.53-3.09-20.55-5.62-102.71-5.62-102.71-5.62,0,0-82.16,0-102.7,5.4-11.03,3.03-20.12,12.12-23.14,23.36-5.41,20.54-5.41,63.13-5.41,63.13,0,0,0,42.81,5.41,63.14,3.02,11.24,11.89,20.11,23.14,23.14,10.38,2.81,36.09,4.22,59.18,4.92,23.06,.7,43.52,.7,43.52,.7,0,0,82.16,0,102.71-5.41,11.24-3.02,20.11-11.89,23.13-23.14,5.41-20.54,5.41-63.13,5.41-63.13,0,0,.22-42.81-5.41-63.35Zm-142.23,96.85l-9.77,5.63v-78.7l44.88,25.85,23.44,13.5-58.55,33.72Z"/>
  </g>
  <path class="cls-2" d="M464.37,716.02h21.6v62.18c-7.26-.19-14.47-.63-21.6-1.33v-60.85Z"/>
  <path class="cls-2" d="M523.75,716.02h21.6v58.13c-7.12,1.18-14.33,2.12-21.6,2.79v-60.92Z"/>
  <path class="cls-2" d="M803.95,468.81c0,132.38-83.11,245.35-200,289.58-6.82,2.58-13.77,4.93-20.82,7.03v-91.81h-177.36v91.82c-12.97-3.87-25.59-8.57-37.79-14.05-107.89-48.35-183.04-156.69-183.04-282.57,0-35.95,6.13-70.46,17.4-102.56,7.09-20.2,16.21-39.44,27.13-57.48l58.55-33.72-23.44-13.5c25.76-28.56,56.78-52.3,91.52-69.68,41.63-20.84,88.62-32.57,138.35-32.57,46.91,0,91.38,10.44,131.22,29.11,3.57,1.67,7.09,3.41,10.58,5.22h.01c14.87,15.31,32.91,27.03,52.71,34.43,38.22,30.92,68.93,70.75,88.96,116.34,16.73,38.07,26.02,80.16,26.02,124.41Z"/>
</svg>