<?xml version="1.0" encoding="utf-8"?>
<!-- Generator: Adobe Illustrator 27.3.1, SVG Export Plug-In . SVG Version: 6.00 Build 0)  -->
<svg version="1.1" id="Layer_1" xmlns="http://www.w3.org/2000/svg" xmlns:xlink="http://www.w3.org/1999/xlink" x="0px" y="0px"
	 viewBox="0 0 64 64" style="enable-background:new 0 0 64 64;" xml:space="preserve">
<style type="text/css">
	.st0{fill:#FFFFFF;}
</style>
<g>
	<path class="st0" d="M45.9,16.9c-0.3-0.7-1-1.4-1.8-1.6c-0.4-0.1-1.1-0.2-3-0.2c-1.3,0-2.4,0-2.5,0c-0.1,0-0.1,1.7-0.1,3.8v3.7
		l2.7,0l2.7,0l0.6-0.3c1.2-0.6,1.7-1.7,1.6-3.6C46.1,17.7,46.1,17.3,45.9,16.9z"/>
	<path class="st0" d="M56.8,3.1C55.9,3,8.1,3,7.2,3.1C5.5,3.4,3.9,4.8,3.4,6.4C3.2,7.1,3.2,7.4,3.2,24.4l0,17.2l0.3,0.7
		c0.4,0.9,1.3,1.9,2.1,2.3c1.2,0.6,0.3,0.6,18,0.6h16.2l5.8,7.5c3.2,4.1,6.1,7.7,6.4,8c0.6,0.5,0.9,0.6,1.3,0.5
		c0.6-0.1,0.6-0.1,0.6-8.4l0-7.7h1.3c2.1,0,3.1-0.4,4.2-1.5c0.4-0.4,0.7-0.9,0.9-1.4l0.3-0.7l0-17.2c0-16.6,0-17.3-0.2-17.9
		C60.1,4.7,58.6,3.4,56.8,3.1z M28,23.7c-1.8,5.7-3.3,10.8-3.4,11.3c-0.3,1.1-0.7,1.5-1.7,1.8c-1.6,0.5-3.6,0-4.2-1
		c-0.2-0.5-7-22.6-7-22.9c0-0.6,0.6-1.3,1.6-1.6c1.1-0.4,2.3-0.2,2.7,0.4c0.1,0.1,1.3,4.4,2.8,9.6c1.4,5.2,2.7,9.4,2.7,9.5
		c0,0.1,0.4-1,0.8-2.6c0.4-1.5,1.6-5.8,2.7-9.6c1.1-3.8,2-7,2.1-7.1c0.5-0.7,2.3-0.6,3.4,0.2c0.6,0.4,0.8,0.8,0.8,1.2
		C31.2,13.1,29.7,17.9,28,23.7z M49.4,36.7c-1,0.5-1.9,0.4-2.5-0.3c-0.2-0.2-1.4-2.6-2.8-5.2l-2.5-4.9l-1.5,0l-1.5,0v4.7
		c0,5.4,0,5.2-0.8,5.6c-0.7,0.4-2.2,0.4-2.9,0C33.9,36,34,37.1,34,24.4c0-6.2,0-11.6,0-11.9c0.1-0.6,0.4-1.1,0.8-1.3
		c0.3-0.1,8.7-0.1,9.6,0c3.3,0.5,5.4,2.1,6.1,4.8c0.2,0.5,0.2,1.1,0.2,2.4c0,1.9-0.2,2.9-0.8,4.1c-0.6,1.2-1.9,2.3-3.1,2.7
		c-0.3,0.1-0.5,0.2-0.5,0.3c0,0.1,1,2.1,2.3,4.5c1.3,2.4,2.4,4.5,2.4,4.6C51,35.3,50.2,36.2,49.4,36.7z"/>
	<path d="M57.5,0.2c-1.1-0.2-50-0.2-51.1,0c-3,0.7-5.3,3-6,6.1c-0.2,1.1-0.2,34.3,0,35.4c0.6,2.8,2.5,5,5.3,5.9l0.9,0.3l16,0l15.9,0
		l5.5,7c3.1,4,5.7,7.3,6.1,7.7c1.4,1.3,2.9,1.7,4.3,1.2c0.8-0.3,1.7-1.1,2.1-2l0.3-0.7l0-6.6l0-6.6l0.3-0.1c1.8-0.4,3-1,4.2-2
		c1.2-1.2,2-2.5,2.4-4.2c0.2-1.1,0.2-34.1,0-35.4C63,3.2,60.7,0.8,57.5,0.2z M60.9,24.4l0,17.2l-0.3,0.7c-0.2,0.4-0.6,1-0.9,1.4
		c-1.1,1.1-2.1,1.5-4.2,1.5H54l0,7.7c0,8.3,0,8.2-0.6,8.4c-0.4,0.1-0.7,0-1.3-0.5c-0.3-0.3-3.2-3.9-6.4-8l-5.8-7.5H23.7
		c-17.7,0-16.8,0-18-0.6c-0.7-0.4-1.6-1.4-2.1-2.3l-0.3-0.7l0-17.2c0-17,0-17.2,0.2-17.9c0.5-1.7,2.1-3,3.8-3.3
		C8.1,3,55.9,3,56.8,3.1c1.8,0.3,3.3,1.6,3.9,3.4C60.9,7.1,60.9,7.8,60.9,24.4z"/>
	<path d="M30.4,11.7c-1-0.8-2.8-0.9-3.4-0.2c-0.1,0.1-1,3.3-2.1,7.1c-1.1,3.8-2.3,8.1-2.7,9.6c-0.5,1.6-0.8,2.7-0.8,2.6
		c-0.1-0.1-1.3-4.4-2.7-9.5c-1.5-5.2-2.7-9.5-2.8-9.6c-0.3-0.6-1.5-0.8-2.7-0.4c-1,0.4-1.6,1-1.6,1.6c0,0.3,6.8,22.5,7,22.9
		c0.5,1,2.5,1.5,4.2,1c1-0.3,1.4-0.7,1.7-1.8c0.2-0.5,1.7-5.6,3.4-11.3c1.8-5.7,3.2-10.6,3.2-10.8C31.2,12.5,30.9,12.1,30.4,11.7z"
		/>
	<path d="M46.3,25.5c0-0.1,0.3-0.2,0.5-0.3c1.2-0.5,2.4-1.6,3.1-2.7c0.6-1.2,0.8-2.1,0.8-4.1c0-1.3-0.1-1.9-0.2-2.4
		c-0.8-2.8-2.8-4.3-6.1-4.8c-0.9-0.1-9.2-0.1-9.6,0c-0.4,0.2-0.8,0.7-0.8,1.3c0,0.3-0.1,5.7,0,11.9c0,12.8,0,11.7,0.9,12.2
		c0.7,0.4,2.2,0.4,2.9,0c0.9-0.4,0.8-0.2,0.8-5.6v-4.7l1.5,0l1.5,0l2.5,4.9c1.4,2.7,2.6,5,2.8,5.2c0.6,0.7,1.5,0.8,2.5,0.3
		c0.9-0.4,1.6-1.4,1.6-2.1c0-0.1-1.1-2.2-2.4-4.6C47.3,27.6,46.3,25.6,46.3,25.5z M44.5,22.2l-0.6,0.3l-2.7,0l-2.7,0v-3.7
		c0-2,0-3.7,0.1-3.8c0,0,1.2-0.1,2.5,0c1.9,0,2.5,0.1,3,0.2c0.7,0.2,1.4,0.9,1.8,1.6c0.2,0.5,0.3,0.8,0.3,1.7
		C46.2,20.5,45.8,21.5,44.5,22.2z"/>
</g>
</svg>
