<svg version="1.2" xmlns="http://www.w3.org/2000/svg" viewBox="0 0 596 596" width="64" height="64"><style></style><path  d="m60.2 1.6c-28 6.1-49.8 28.2-55.7 56.5-2.2 10.6-2.2 319.2 0 329.8 5.4 25.9 23.6 46.2 49 54.9l8 2.7 148.6 0.3 148.5 0.2 50.9 65.6c29 37.4 53.5 68 57.1 71.4 12.7 11.8 27.1 15.8 39.9 10.9 7.9-3 15.4-10 19.1-18.2l2.9-6.2 0.3-61.7 0.3-61.8 2.7-0.5c17-3.5 28.3-8.9 38.7-18.7 11.6-10.8 18.8-23.5 22-38.9 2.2-10.4 2.2-317.8 0.1-329.3-5.5-28.6-27.7-51-56.7-57.1-10.2-2.2-465.9-2.1-475.7 0.1zm468.8 27.5c17 2.7 31.1 14.9 36.2 31.2 1.7 5.7 1.8 12.3 1.6 166.6l-0.3 160.6-3.2 6.8c-1.9 3.9-5.5 9.2-8.8 12.6-10.2 10.7-19.7 14.1-39.2 14.1h-12.2l-0.3 71.7c-0.3 77.3-0.3 76.6-5.5 77.9-3.7 1-6.7-0.3-12-5-2.7-2.5-29.4-36-59.3-74.5l-54.4-70.1h-151.1c-165 0-156.7 0.3-167.7-5.7-6.9-3.7-15.3-13-19.1-21l-3.2-6.8-0.3-160.5c-0.2-158.3-0.2-160.6 1.8-167.1 4.6-15.4 19.3-28.1 35.4-30.8 7.7-1.3 453.6-1.3 461.6 0z"/><path  d="m123.1 105c-9.2 3.3-15.1 9.3-15.1 15.2 0 3 63.2 209.3 65.4 213.7 4.9 9.4 23.6 13.8 38.8 9.1 9.3-2.9 13-6.8 16.2-17.2 1.4-4.6 15.8-52 32.1-105.3 16.3-53.4 29.6-98.5 29.7-100.3 0-4.1-2.2-7.4-7.4-11.2-9.7-7.1-26.4-8-31.5-1.8-0.7 0.8-9.4 30.4-19.3 65.9-10 35.4-21.3 75.8-25.2 89.8-4.2 14.8-7.4 24.7-7.8 24-0.5-0.8-11.9-40.7-25.4-88.8-13.6-48-25.1-88.2-25.7-89.3-3.1-5.8-14.4-7.5-24.8-3.8z"/><path  d="m324.4 104c-3.9 1.6-7.2 6.7-7.9 12.2-0.3 2.9-0.5 52.8-0.3 110.8 0.3 118.8-0.4 108.7 8.1 113.2 6.2 3.3 20.2 3.3 27-0.1 8-3.9 7.7-2.1 7.7-52.1v-44.1l14 0.3 14.1 0.3 23.4 45.5c12.8 25 24.6 47 26 48.8 5.4 6.8 13.6 7.8 23.2 2.8 8-4.1 15.3-13.3 15.3-19.2 0-1-9.9-20.2-22-42.7-12.2-22.5-21.9-41.4-21.8-41.9 0.2-0.6 2.4-1.8 4.9-2.8 11.1-4.2 22.7-14.6 28.6-25.6 6-11.3 7.8-19.9 7.8-37.9-0.1-12.3-0.5-17.5-1.9-22.5-7.1-25.7-26-40.5-57.1-45-8.4-1.2-86.1-1.2-89.1 0zm86.2 38.3c6.8 2.3 13.5 8.3 16.5 14.9 1.8 4.2 2.4 7.6 2.7 15.9 0.7 17.9-3.7 27.5-15.3 33.4l-5.9 3-24.8 0.3-24.8 0.4v-34.5c0-18.9 0.3-34.7 0.8-35.1 0.4-0.4 10.8-0.6 23.2-0.3 17.3 0.3 23.7 0.8 27.6 2z"/></svg>